<svg width="800" height="400" xmlns="http://www.w3.org/2000/svg"><defs><pattern id="b" x="0" y="0" width="1" height="1" patternUnits="objectBoundingBox"><linearGradient id="a" x1="0" y1="0" x2="0" y2="1"><stop offset="0%" stop-color="#dbf4ff"/><stop offset="100%" stop-color="#fff1f1"/></linearGradient><path fill="url(#a)" d="M0 0h800v400H0z"/></pattern></defs><path fill="url(#b)" d="M0 0h800v400H0z"/><clipPath id="e"><path d="M226.3 183.2h-29.5v-43.7h29.4v7.6H206v10.4h18.7v7.6H206v10.5h20.3v7.6Zm14.2-19v19h-9.1v-43.7h8.8v16.7h.4q1.1-2.9 3.6-4.5 2.4-1.7 6.2-1.7 3.4 0 5.9 1.5 2.6 1.5 4 4.2 1.4 2.8 1.4 6.6v20.9h-9.1v-19.3q0-3-1.5-4.7-1.6-1.7-4.3-1.7-1.9 0-3.3.8t-2.2 2.3q-.8 1.5-.8 3.6Zm24-13.8h19.7v6.9h-19.7v-6.9Zm4.5 23.9v-31.7h9.1v30.5q0 1.3.4 2 .4.6 1 .9.7.3 1.7.3.6 0 1.2-.1.7-.1 1-.2l1.4 6.8q-.6.2-1.9.5-1.2.2-3 .3-3.3.1-5.7-.9-2.5-1-3.9-3.1-1.3-2.1-1.3-5.3Zm28.2 8.9h-9.1v-32.8h9.1v32.8Zm-4.5-37q-2 0-3.5-1.3-1.4-1.4-1.4-3.3t1.4-3.2q1.5-1.4 3.5-1.4t3.5 1.4q1.4 1.3 1.4 3.2 0 1.9-1.4 3.3-1.5 1.3-3.5 1.3Zm37 13.6-8.3.5q-.2-1.1-.9-2-.7-.8-1.9-1.3-1.1-.6-2.7-.6-2.1 0-3.5.9-1.5.9-1.5 2.4 0 1.2.9 2 1 .8 3.3 1.3l5.9 1.2q4.8.9 7.1 3.1t2.3 5.7q0 3.2-1.8 5.7-1.9 2.4-5.2 3.7-3.3 1.4-7.5 1.4-6.5 0-10.4-2.7-3.8-2.7-4.5-7.4l8.9-.5q.4 2 2 3 1.6 1.1 4 1.1t3.8-1q1.5-.9 1.5-2.4 0-1.2-1-2-1.1-.8-3.2-1.2l-5.7-1.2q-4.7-.9-7.1-3.3-2.3-2.3-2.3-6 0-3.2 1.7-5.4 1.7-2.3 4.8-3.6 3.2-1.2 7.4-1.2 6.2 0 9.7 2.6 3.6 2.6 4.2 7.2Zm13.5 4.4v19h-9v-43.7h8.8v16.7h.4q1.1-2.9 3.6-4.5 2.4-1.7 6.2-1.7 3.4 0 5.9 1.5 2.6 1.5 4 4.2 1.4 2.8 1.4 6.6v20.9h-9.1v-19.3q0-3-1.5-4.7-1.6-1.7-4.3-1.7-1.9 0-3.3.8t-2.2 2.3q-.8 1.5-.9 3.6Zm35.8 19.6q-3.2 0-5.6-1.1-2.5-1.1-3.9-3.3-1.4-2.1-1.4-5.4 0-2.7 1-4.6 1-1.8 2.7-2.9 1.7-1.2 4-1.7 2.2-.6 4.6-.9 2.8-.3 4.6-.5 1.7-.3 2.5-.8.8-.6.8-1.6v-.1q0-2.1-1.3-3.2-1.2-1.1-3.5-1.1-2.5 0-3.9 1.1-1.5 1.1-2 2.7l-8.4-.7q.7-3 2.6-5.1 1.8-2.2 4.8-3.4 3-1.2 6.9-1.2 2.7 0 5.2.6 2.5.7 4.5 2 1.9 1.4 3.1 3.5 1.1 2.1 1.1 5v22.1h-8.6v-4.6h-.3q-.8 1.6-2.1 2.7-1.3 1.2-3.2 1.8-1.8.7-4.2.7Zm2.6-6.3q2 0 3.5-.8t2.4-2.1q.9-1.4.9-3.1V168q-.4.3-1.2.5-.7.2-1.6.4-.9.2-1.9.3-.9.2-1.6.3-1.6.2-2.8.7-1.2.5-1.9 1.4-.6.8-.6 2.1 0 1.9 1.3 2.8 1.4 1 3.5 1Zm29.9 5.7h-9.1v-32.8h8.7v5.8h.4q1-2.9 3.4-4.5 2.4-1.7 5.7-1.7 3.4 0 5.7 1.7 2.4 1.7 3.2 4.5h.3q1-2.8 3.7-4.5 2.6-1.7 6.2-1.7 4.6 0 7.4 2.9 2.9 2.9 2.9 8.3v22h-9.1v-20.3q0-2.7-1.4-4.1-1.5-1.3-3.6-1.3-2.5 0-3.9 1.6-1.4 1.5-1.4 4.1v20h-8.8v-20.5q0-2.4-1.3-3.8-1.4-1.4-3.7-1.4-1.5 0-2.7.7-1.2.8-1.9 2.2-.7 1.3-.7 3.1v19.7Zm74.2-33.7-10.9 33.7h-9.9l15-43.7h11.9l15.1 43.7H497l-10.9-33.7h-.4Zm-11.6 23.7V166h23.4v7.2h-23.4Zm32.6-22.8h20.2v6.9h-20.2v-6.9Zm13.7 32.8h-9v-35.1q0-3.6 1.3-5.9 1.4-2.4 3.9-3.5 2.4-1.2 5.5-1.2 2.1 0 3.8.3 1.8.3 2.6.6l-1.6 6.8q-.5-.2-1.3-.3-.8-.2-1.6-.2-2 0-2.8.9-.8 1-.8 2.6v35Zm37.4 0h-27.5v-5.5l16-19.8v-.2h-15.4v-7.3h26.4v5.9l-15.1 19.4v.2h15.6v7.3Zm14.3.6q-3.1 0-5.6-1.1-2.4-1.1-3.8-3.3-1.5-2.1-1.5-5.4 0-2.7 1-4.6 1-1.8 2.8-2.9 1.7-1.2 3.9-1.7 2.2-.6 4.6-.9 2.9-.3 4.6-.5 1.8-.3 2.6-.8.8-.6.8-1.6v-.1q0-2.1-1.3-3.2t-3.6-1.1q-2.5 0-3.9 1.1t-1.9 2.7l-8.4-.7q.6-3 2.5-5.1 1.9-2.2 4.8-3.4 3-1.2 6.9-1.2 2.8 0 5.3.6 2.5.7 4.4 2 2 1.4 3.1 3.5t1.1 5v22.1h-8.6v-4.6h-.2q-.8 1.6-2.1 2.7-1.4 1.2-3.2 1.8-1.9.7-4.3.7Zm2.6-6.3q2 0 3.5-.8 1.6-.8 2.4-2.1.9-1.4.9-3.1V168q-.4.3-1.1.5-.8.2-1.7.4-.9.2-1.8.3-.9.2-1.7.3-1.6.2-2.8.7-1.2.5-1.8 1.4-.7.8-.7 2.1 0 1.9 1.4 2.8 1.3 1 3.4 1Zm20.9-38h9.1v43.7h-9.1v-43.7Z"/></clipPath><defs><pattern id="d" x="0" y="0" width="1" height="1" patternUnits="objectBoundingBox"><linearGradient id="c" x1="0" y1="0" x2="1" y2="0"><stop offset="0%" stop-color="#007CF0"/><stop offset="100%" stop-color="#00DFD8"/></linearGradient><path fill="url(#c)" d="M0 0h414v73H0z"/></pattern></defs><path fill="url(#d)" clip-path="url(#e)" d="M193 127h414v73H193z"/><clipPath id="h"><path d="M236 256.2h-9.2v-43.7H244q5 0 8.5 1.9t5.3 5.2q1.8 3.4 1.8 7.7 0 4.4-1.8 7.7-1.9 3.3-5.4 5.2-3.6 1.8-8.6 1.8h-11v-7.4h9.5q2.6 0 4.4-.9 1.7-.9 2.6-2.6.8-1.6.8-3.8 0-2.2-.8-3.8-.9-1.6-2.6-2.5-1.8-.9-4.5-.9H236v36.1Zm41.7.6q-4.9 0-8.6-2.1-3.6-2.1-5.5-5.9-2-3.8-2-8.9 0-5 2-8.8 1.9-3.9 5.5-6 3.7-2.1 8.6-2.1 5 0 8.6 2.1 3.6 2.1 5.6 6 1.9 3.8 1.9 8.8 0 5.1-1.9 8.9-2 3.8-5.6 5.9-3.6 2.1-8.6 2.1Zm.1-7q2.2 0 3.7-1.3t2.3-3.5q.8-2.3.8-5.1 0-2.9-.8-5.1-.8-2.3-2.3-3.6-1.5-1.3-3.7-1.3-2.3 0-3.9 1.3-1.5 1.3-2.3 3.6-.8 2.2-.8 5.1 0 2.8.8 5.1.8 2.2 2.3 3.5 1.6 1.3 3.9 1.3Zm29 6.4h-9v-32.8h8.7v5.7h.4q.9-3 3-4.6 2.1-1.5 4.9-1.5h1.4q.8.1 1.4.3v8q-.6-.2-1.8-.3-1.1-.2-2-.2-2 0-3.6.9t-2.5 2.4q-.9 1.5-.9 3.5v18.6Zm12.8-32.8h19.7v6.9h-19.7v-6.9Zm4.5 23.9v-31.7h9.1v30.5q0 1.3.3 2 .4.6 1.1.9.7.3 1.6.3.7 0 1.3-.1.7-.1 1-.2l1.4 6.8q-.7.2-1.9.5-1.2.2-3 .3-3.3.1-5.7-.9-2.5-1-3.9-3.1-1.3-2.1-1.3-5.3Zm16.5-23.9h20.2v6.9h-20.2v-6.9Zm13.7 32.8h-9.1v-35.1q0-3.6 1.4-5.9 1.4-2.4 3.9-3.5 2.4-1.2 5.5-1.2 2.1 0 3.8.3 1.7.3 2.6.6l-1.6 6.8q-.6-.2-1.3-.3-.8-.2-1.6-.2-2 0-2.8.9-.8 1-.8 2.6v35Zm23.7.6q-5 0-8.6-2.1-3.6-2.1-5.5-5.9-2-3.8-2-8.9 0-5 2-8.8 1.9-3.9 5.5-6t8.6-2.1q5 0 8.6 2.1 3.6 2.1 5.5 6 2 3.8 2 8.8 0 5.1-2 8.9-1.9 3.8-5.5 5.9-3.6 2.1-8.6 2.1Zm0-7q2.3 0 3.8-1.3t2.3-3.5q.8-2.3.8-5.1 0-2.9-.8-5.1-.8-2.3-2.3-3.6-1.5-1.3-3.8-1.3-2.2 0-3.8 1.3-1.5 1.3-2.3 3.6-.8 2.2-.8 5.1 0 2.8.8 5.1.8 2.2 2.3 3.5 1.6 1.3 3.8 1.3Zm20-37.3h9.1v43.7H398v-43.7Zm23.4 43.7h-9v-32.8h9v32.8Zm-4.5-37q-2 0-3.5-1.3-1.4-1.4-1.4-3.3t1.4-3.2q1.5-1.4 3.5-1.4t3.5 1.4q1.4 1.3 1.4 3.2 0 1.9-1.4 3.3-1.5 1.3-3.5 1.3Zm24.6 37.6q-5 0-8.6-2.1-3.6-2.1-5.6-5.9-1.9-3.8-1.9-8.9 0-5 1.9-8.8 2-3.9 5.6-6 3.6-2.1 8.6-2.1 4.9 0 8.5 2.1 3.6 2.1 5.6 6 2 3.8 2 8.8 0 5.1-2 8.9-2 3.8-5.6 5.9-3.6 2.1-8.5 2.1Zm0-7q2.3 0 3.8-1.3t2.3-3.5q.7-2.3.7-5.1 0-2.9-.7-5.1-.8-2.3-2.3-3.6-1.5-1.3-3.8-1.3t-3.8 1.3q-1.6 1.3-2.3 3.6-.8 2.2-.8 5.1 0 2.8.8 5.1.7 2.2 2.3 3.5 1.5 1.3 3.8 1.3Zm64.7-24.7h-8.9q-.2-2.6-2.2-4-1.9-1.5-5.2-1.5-2.3 0-3.9.7-1.5.6-2.3 1.7-.9 1.1-.9 2.5 0 1.2.5 2.1.6.8 1.5 1.5 1 .6 2.3 1.1 1.2.4 2.6.7l4 1q2.8.6 5.2 1.7 2.4 1 4.1 2.6 1.8 1.5 2.8 3.7.9 2.1 1 4.8-.1 4-2.1 6.9-2 3-5.8 4.6-3.8 1.6-9.1 1.6t-9.2-1.6q-3.9-1.7-6.1-4.8-2.2-3.2-2.3-7.9h9q.1 2.2 1.2 3.6 1.1 1.5 3 2.2 1.9.7 4.3.7 2.3 0 4.1-.6 1.7-.7 2.7-1.9.9-1.2.9-2.8 0-1.5-.8-2.5-.9-1-2.5-1.7-1.7-.7-4.1-1.3l-4.7-1.2q-5.5-1.3-8.7-4.2-3.2-2.8-3.2-7.7 0-3.9 2.1-6.9 2.1-2.9 5.9-4.6 3.7-1.7 8.5-1.7 4.9 0 8.5 1.7 3.6 1.7 5.7 4.6 2 3 2.1 6.9Zm13.6 31.1h-9v-32.8h9v32.8Zm-4.5-37q-2 0-3.4-1.3-1.5-1.4-1.5-3.3t1.5-3.2q1.4-1.4 3.4-1.4t3.5 1.4q1.4 1.3 1.4 3.2 0 1.9-1.4 3.3-1.5 1.3-3.5 1.3Zm7.5 4.2h19.7v6.9h-19.7v-6.9Zm4.5 23.9v-31.7h9v30.5q0 1.3.4 2 .4.6 1.1.9.7.3 1.6.3.6 0 1.3-.1.6-.1 1-.2l1.4 6.8q-.7.2-1.9.5-1.3.2-3 .3-3.3.1-5.8-.9-2.4-1-3.8-3.1t-1.3-5.3Zm33.7 9.5q-5.1 0-8.7-2.1-3.7-2-5.6-5.8-2-3.8-2-9 0-5 2-8.8 1.9-3.8 5.5-6 3.6-2.1 8.4-2.1 3.2 0 6 1 2.8 1.1 4.9 3.1 2.1 2.1 3.3 5.2 1.2 3.2 1.2 7.3v2.5h-27.7v-5.6h19.1q0-2-.8-3.5-.9-1.5-2.4-2.4-1.5-.8-3.4-.8-2.1 0-3.7.9-1.6 1-2.5 2.6-.9 1.6-.9 3.5v5.3q0 2.5.9 4.2.9 1.8 2.6 2.8 1.6.9 3.9.9 1.5 0 2.8-.4 1.2-.4 2.1-1.3.9-.8 1.4-2.1l8.4.6q-.6 3-2.6 5.3-2 2.2-5.1 3.5-3.1 1.2-7.1 1.2Z"/></clipPath><defs><pattern id="g" x="0" y="0" width="1" height="1" patternUnits="objectBoundingBox"><linearGradient id="f" x1="0" y1="0" x2="1" y2="0"><stop offset="0%" stop-color="#FF4D4D"/><stop offset="100%" stop-color="#F9CB28"/></linearGradient><path fill="url(#f)" d="M0 0h354v73H0z"/></pattern></defs><path fill="url(#g)" clip-path="url(#h)" d="M223 200h354v73H223z"/></svg>