<svg width="800" height="400" viewBox="0 0 800 400" xmlns="http://www.w3.org/2000/svg"><defs><pattern id="satori_pattern_id_0" x="0" y="0" width="1" height="1" patternUnits="objectBoundingBox"><linearGradient id="satori_biid_0" x1="0" y1="0" x2="0" y2="1"><stop offset="0%" stop-color="#dbf4ff"/><stop offset="100%" stop-color="#fff1f1"/></linearGradient><rect x="0" y="0" width="800" height="400" fill="url(#satori_biid_0)"/></pattern></defs><mask id="satori_om-id"><rect x="0" y="0" width="800" height="400" fill="#fff"/></mask><rect x="0" y="0" width="800" height="400" fill="url(#satori_pattern_id_0)"/><clipPath id="satori_bct-id-0"><path d="M226.3 183.2L196.8 183.2L196.8 139.5L226.2 139.5L226.2 147.1L206.0 147.1L206.0 157.5L224.7 157.5L224.7 165.1L206.0 165.1L206.0 175.6L226.3 175.6L226.3 183.2ZM240.5 164.2L240.5 164.2L240.5 183.2L231.4 183.2L231.4 139.5L240.2 139.5L240.2 156.2L240.6 156.2Q241.7 153.3 244.2 151.7Q246.6 150.0 250.4 150.0L250.4 150.0Q253.8 150.0 256.3 151.5Q258.9 153.0 260.3 155.7Q261.7 158.5 261.7 162.3L261.7 162.3L261.7 183.2L252.6 183.2L252.6 163.9Q252.6 160.9 251.1 159.2Q249.5 157.5 246.8 157.5L246.8 157.5Q244.9 157.5 243.5 158.3Q242.1 159.1 241.3 160.6Q240.5 162.1 240.5 164.2ZM264.5 150.4L284.2 150.4L284.2 157.3L264.5 157.3L264.5 150.4ZM269.0 174.3L269.0 142.6L278.1 142.6L278.1 173.1Q278.1 174.4 278.5 175.1Q278.9 175.7 279.5 176.0Q280.2 176.3 281.2 176.3L281.2 176.3Q281.8 176.3 282.4 176.2Q283.1 176.1 283.4 176.0L283.4 176.0L284.8 182.8Q284.2 183.0 282.9 183.3Q281.7 183.5 279.9 183.6L279.9 183.6Q276.6 183.7 274.2 182.7Q271.7 181.7 270.3 179.6Q269.0 177.5 269.0 174.3L269.0 174.3ZM297.2 183.2L288.1 183.2L288.1 150.4L297.2 150.4L297.2 183.2ZM292.7 146.2L292.7 146.2Q290.7 146.2 289.2 144.9Q287.8 143.5 287.8 141.6L287.8 141.6Q287.8 139.7 289.2 138.4Q290.7 137.0 292.7 137.0L292.7 137.0Q294.7 137.0 296.2 138.4Q297.6 139.7 297.6 141.6L297.6 141.6Q297.6 143.5 296.2 144.9Q294.7 146.2 292.7 146.2ZM329.7 159.8L329.7 159.8L321.4 160.3Q321.2 159.2 320.5 158.3Q319.8 157.5 318.6 157.0Q317.5 156.4 315.9 156.4L315.9 156.4Q313.8 156.4 312.4 157.3Q310.9 158.2 310.9 159.7L310.9 159.7Q310.9 160.9 311.8 161.7Q312.8 162.5 315.1 163.0L315.1 163.0L321.0 164.2Q325.8 165.1 328.1 167.3Q330.4 169.5 330.4 173.0L330.4 173.0Q330.4 176.2 328.6 178.7Q326.7 181.1 323.4 182.4Q320.1 183.8 315.9 183.8L315.9 183.8Q309.4 183.8 305.5 181.1Q301.7 178.4 301.0 173.7L301.0 173.7L309.9 173.2Q310.3 175.2 311.9 176.2Q313.5 177.3 315.9 177.3L315.9 177.3Q318.3 177.3 319.7 176.3Q321.2 175.4 321.2 173.9L321.2 173.9Q321.2 172.7 320.2 171.9Q319.1 171.1 317.0 170.7L317.0 170.7L311.3 169.5Q306.6 168.6 304.2 166.2Q301.9 163.9 301.9 160.2L301.9 160.2Q301.9 157.0 303.6 154.8Q305.3 152.5 308.4 151.2Q311.6 150.0 315.8 150.0L315.8 150.0Q322.0 150.0 325.5 152.6Q329.1 155.2 329.7 159.8ZM343.2 164.2L343.2 164.2L343.2 183.2L334.2 183.2L334.2 139.5L343.0 139.5L343.0 156.2L343.4 156.2Q344.5 153.3 347.0 151.7Q349.4 150.0 353.2 150.0L353.2 150.0Q356.6 150.0 359.1 151.5Q361.7 153.0 363.1 155.7Q364.5 158.5 364.5 162.3L364.5 162.3L364.5 183.2L355.4 183.2L355.4 163.9Q355.4 160.9 353.9 159.2Q352.3 157.5 349.6 157.5L349.6 157.5Q347.7 157.5 346.3 158.3Q344.9 159.1 344.1 160.6Q343.3 162.1 343.2 164.2ZM379.0 183.8L379.0 183.8Q375.8 183.8 373.4 182.7Q370.9 181.6 369.5 179.4Q368.1 177.3 368.1 174.0L368.1 174.0Q368.1 171.3 369.1 169.4Q370.1 167.6 371.8 166.5Q373.5 165.3 375.8 164.8Q378.0 164.2 380.4 163.9L380.4 163.9Q383.2 163.6 385.0 163.4Q386.7 163.1 387.5 162.6Q388.3 162.0 388.3 161.0L388.3 161.0L388.3 160.9Q388.3 158.8 387.0 157.7Q385.8 156.6 383.5 156.6L383.5 156.6Q381.0 156.6 379.6 157.7Q378.1 158.8 377.6 160.4L377.6 160.4L369.2 159.7Q369.9 156.7 371.8 154.6Q373.6 152.4 376.6 151.2Q379.6 150.0 383.5 150.0L383.5 150.0Q386.2 150.0 388.7 150.6Q391.2 151.3 393.2 152.6Q395.1 154.0 396.3 156.1Q397.4 158.2 397.4 161.1L397.4 161.1L397.4 183.2L388.8 183.2L388.8 178.6L388.5 178.6Q387.7 180.2 386.4 181.3Q385.1 182.5 383.2 183.1Q381.4 183.8 379.0 183.8ZM381.6 177.5L381.6 177.5Q383.6 177.5 385.1 176.7Q386.6 175.9 387.5 174.6Q388.4 173.2 388.4 171.5L388.4 171.5L388.4 168.0Q388.0 168.3 387.2 168.5Q386.5 168.7 385.6 168.9Q384.7 169.1 383.7 169.2Q382.8 169.4 382.1 169.5L382.1 169.5Q380.5 169.7 379.3 170.2Q378.1 170.7 377.4 171.6Q376.8 172.4 376.8 173.7L376.8 173.7Q376.8 175.6 378.1 176.5Q379.5 177.5 381.6 177.5ZM411.5 183.2L402.4 183.2L402.4 150.4L411.1 150.4L411.1 156.2L411.5 156.2Q412.5 153.3 414.9 151.7Q417.3 150.0 420.6 150.0L420.6 150.0Q424.0 150.0 426.3 151.7Q428.7 153.4 429.5 156.2L429.5 156.2L429.8 156.2Q430.8 153.4 433.5 151.7Q436.1 150.0 439.7 150.0L439.7 150.0Q444.3 150.0 447.1 152.9Q450.0 155.8 450.0 161.2L450.0 161.2L450.0 183.2L440.9 183.2L440.9 162.9Q440.9 160.2 439.5 158.8Q438.0 157.5 435.9 157.5L435.9 157.5Q433.4 157.5 432.0 159.1Q430.6 160.6 430.6 163.2L430.6 163.2L430.6 183.2L421.8 183.2L421.8 162.7Q421.8 160.3 420.5 158.9Q419.1 157.5 416.8 157.5L416.8 157.5Q415.3 157.5 414.1 158.2Q412.9 159.0 412.2 160.4Q411.5 161.7 411.5 163.5L411.5 163.5L411.5 183.2Z M485.7 149.5L474.8 183.2L464.9 183.2L479.9 139.5L491.8 139.5L506.9 183.2L497.0 183.2L486.1 149.5L485.7 149.5ZM474.1 173.2L474.1 166.0L497.5 166.0L497.5 173.2L474.1 173.2ZM506.7 150.4L526.9 150.4L526.9 157.3L506.7 157.3L506.7 150.4ZM520.4 183.2L511.4 183.2L511.4 148.1Q511.4 144.5 512.7 142.2Q514.1 139.8 516.6 138.7Q519.0 137.5 522.1 137.5L522.1 137.5Q524.2 137.5 525.9 137.8Q527.7 138.1 528.5 138.4L528.5 138.4L526.9 145.2Q526.4 145.0 525.6 144.9Q524.8 144.7 524.0 144.7L524.0 144.7Q522.0 144.7 521.2 145.6Q520.4 146.6 520.4 148.2L520.4 148.2L520.4 183.2ZM557.8 183.2L530.3 183.2L530.3 177.7L546.3 157.9L546.3 157.7L530.9 157.7L530.9 150.4L557.3 150.4L557.3 156.3L542.2 175.7L542.2 175.9L557.8 175.9L557.8 183.2ZM572.1 183.8L572.1 183.8Q569.0 183.8 566.5 182.7Q564.1 181.6 562.7 179.4Q561.2 177.3 561.2 174.0L561.2 174.0Q561.2 171.3 562.2 169.4Q563.2 167.6 565.0 166.5Q566.7 165.3 568.9 164.8Q571.1 164.2 573.5 163.9L573.5 163.9Q576.4 163.6 578.1 163.4Q579.9 163.1 580.7 162.6Q581.5 162.0 581.5 161.0L581.5 161.0L581.5 160.9Q581.5 158.8 580.2 157.7Q578.9 156.6 576.6 156.6L576.6 156.6Q574.1 156.6 572.7 157.7Q571.3 158.8 570.8 160.4L570.8 160.4L562.4 159.7Q563.0 156.7 564.9 154.6Q566.8 152.4 569.7 151.2Q572.7 150.0 576.6 150.0L576.6 150.0Q579.4 150.0 581.9 150.6Q584.4 151.3 586.3 152.6Q588.3 154.0 589.4 156.1Q590.5 158.2 590.5 161.1L590.5 161.1L590.5 183.2L581.9 183.2L581.9 178.6L581.7 178.6Q580.9 180.2 579.6 181.3Q578.2 182.5 576.4 183.1Q574.5 183.8 572.1 183.8ZM574.7 177.5L574.7 177.5Q576.7 177.5 578.2 176.7Q579.8 175.9 580.6 174.6Q581.5 173.2 581.5 171.5L581.5 171.5L581.5 168.0Q581.1 168.3 580.4 168.5Q579.6 168.7 578.7 168.9Q577.8 169.1 576.9 169.2Q576.0 169.4 575.2 169.5L575.2 169.5Q573.6 169.7 572.4 170.2Q571.2 170.7 570.6 171.6Q569.9 172.4 569.9 173.7L569.9 173.7Q569.9 175.6 571.3 176.5Q572.6 177.5 574.7 177.5ZM595.6 139.5L604.7 139.5L604.7 183.2L595.6 183.2L595.6 139.5Z "/></clipPath><defs><pattern id="satori_pattern_id-0_0" x="0" y="0" width="1" height="1" patternUnits="objectBoundingBox"><linearGradient id="satori_biid-0_0" x1="0" y1="0" x2="1" y2="0"><stop offset="0%" stop-color="rgb(0,124,240)"/><stop offset="100%" stop-color="rgb(0,223,216)"/></linearGradient><rect x="0" y="0" width="414" height="73" fill="url(#satori_biid-0_0)"/></pattern></defs><mask id="satori_om-id-0"><rect x="193" y="127" width="414" height="73" fill="#fff"/></mask><rect x="193" y="127" width="414" height="73" fill="url(#satori_pattern_id-0_0)" clip-path="url(#satori_bct-id-0)"/><clipPath id="satori_bct-id-1"/><defs><pattern id="satori_pattern_id-1_0" x="NaN" y="NaN" width="NaN" height="NaN" patternUnits="objectBoundingBox"><linearGradient id="satori_biid-1_0" x1="0" y1="0" x2="1" y2="0"><stop offset="0%" stop-color="rgb(121,40,202)"/><stop offset="100%" stop-color="rgb(255,0,128)"/></linearGradient><rect x="0" y="0" width="0" height="0" fill="url(#satori_biid-1_0)"/></pattern></defs><mask id="satori_om-id-1"><rect x="400" y="200" width="0" height="0" fill="#fff"/></mask><rect x="400" y="200" width="0" height="0" fill="url(#satori_pattern_id-1_0)" clip-path="url(#satori_bct-id-1)"/><clipPath id="satori_bct-id-2"><path d="M236.0 256.2L226.8 256.2L226.8 212.5L244.0 212.5Q249.0 212.5 252.5 214.4Q256.0 216.3 257.8 219.6Q259.6 223.0 259.6 227.3L259.6 227.3Q259.6 231.7 257.8 235.0Q255.9 238.3 252.4 240.2Q248.8 242.0 243.8 242.0L243.8 242.0L232.8 242.0L232.8 234.6L242.3 234.6Q244.9 234.6 246.7 233.7Q248.4 232.8 249.3 231.1Q250.1 229.5 250.1 227.3L250.1 227.3Q250.1 225.1 249.3 223.5Q248.4 221.9 246.7 221.0Q244.9 220.1 242.2 220.1L242.2 220.1L236.0 220.1L236.0 256.2ZM277.7 256.8L277.7 256.8Q272.8 256.8 269.1 254.7Q265.5 252.6 263.6 248.8Q261.6 245.0 261.6 239.9L261.6 239.9Q261.6 234.9 263.6 231.1Q265.5 227.2 269.1 225.1Q272.8 223.0 277.7 223.0L277.7 223.0Q282.7 223.0 286.3 225.1Q289.9 227.2 291.9 231.1Q293.8 234.9 293.8 239.9L293.8 239.9Q293.8 245.0 291.9 248.8Q289.9 252.6 286.3 254.7Q282.7 256.8 277.7 256.8ZM277.8 249.8L277.8 249.8Q280.0 249.8 281.5 248.5Q283.0 247.2 283.8 245.0Q284.6 242.7 284.6 239.9L284.6 239.9Q284.6 237.0 283.8 234.8Q283.0 232.5 281.5 231.2Q280.0 229.9 277.8 229.9L277.8 229.9Q275.5 229.9 273.9 231.2Q272.4 232.5 271.6 234.8Q270.8 237.0 270.8 239.9L270.8 239.9Q270.8 242.7 271.6 245.0Q272.4 247.2 273.9 248.5Q275.5 249.8 277.8 249.8ZM306.8 256.2L297.8 256.2L297.8 223.4L306.5 223.4L306.5 229.1L306.9 229.1Q307.8 226.1 309.9 224.5Q312.0 223.0 314.8 223.0L314.8 223.0Q315.4 223.0 316.2 223.0Q317.0 223.1 317.6 223.3L317.6 223.3L317.6 231.3Q317.0 231.1 315.8 231.0Q314.7 230.8 313.8 230.8L313.8 230.8Q311.8 230.8 310.2 231.7Q308.6 232.6 307.7 234.1Q306.8 235.6 306.8 237.6L306.8 237.6L306.8 256.2ZM319.6 223.4L339.3 223.4L339.3 230.3L319.6 230.3L319.6 223.4ZM324.1 247.3L324.1 215.6L333.2 215.6L333.2 246.1Q333.2 247.4 333.5 248.1Q333.9 248.7 334.6 249.0Q335.3 249.3 336.2 249.3L336.2 249.3Q336.9 249.3 337.5 249.2Q338.2 249.1 338.5 249.0L338.5 249.0L339.9 255.8Q339.2 256.0 338.0 256.3Q336.8 256.5 335.0 256.6L335.0 256.6Q331.7 256.7 329.3 255.7Q326.8 254.7 325.4 252.6Q324.1 250.5 324.1 247.3L324.1 247.3ZM340.6 223.4L360.8 223.4L360.8 230.3L340.6 230.3L340.6 223.4ZM354.3 256.2L345.2 256.2L345.2 221.1Q345.2 217.5 346.6 215.2Q348.0 212.8 350.5 211.7Q352.9 210.5 356.0 210.5L356.0 210.5Q358.1 210.5 359.8 210.8Q361.5 211.1 362.4 211.4L362.4 211.4L360.8 218.2Q360.2 218.0 359.5 217.9Q358.7 217.7 357.9 217.7L357.9 217.7Q355.9 217.7 355.1 218.6Q354.3 219.6 354.3 221.2L354.3 221.2L354.3 256.2ZM378.0 256.8L378.0 256.8Q373.0 256.8 369.4 254.7Q365.8 252.6 363.9 248.8Q361.9 245.0 361.9 239.9L361.9 239.9Q361.9 234.9 363.9 231.1Q365.8 227.2 369.4 225.1Q373.0 223.0 378.0 223.0L378.0 223.0Q383.0 223.0 386.6 225.1Q390.2 227.2 392.1 231.1Q394.1 234.9 394.1 239.9L394.1 239.9Q394.1 245.0 392.1 248.8Q390.2 252.6 386.6 254.7Q383.0 256.8 378.0 256.8ZM378.0 249.8L378.0 249.8Q380.3 249.8 381.8 248.5Q383.3 247.2 384.1 245.0Q384.9 242.7 384.9 239.9L384.9 239.9Q384.9 237.0 384.1 234.8Q383.3 232.5 381.8 231.2Q380.3 229.9 378.0 229.9L378.0 229.9Q375.8 229.9 374.2 231.2Q372.7 232.5 371.9 234.8Q371.1 237.0 371.1 239.9L371.1 239.9Q371.1 242.7 371.9 245.0Q372.7 247.2 374.2 248.5Q375.8 249.8 378.0 249.8ZM398.0 212.5L407.1 212.5L407.1 256.2L398.0 256.2L398.0 212.5ZM421.4 256.2L412.4 256.2L412.4 223.4L421.4 223.4L421.4 256.2ZM416.9 219.2L416.9 219.2Q414.9 219.2 413.4 217.9Q412.0 216.5 412.0 214.6L412.0 214.6Q412.0 212.7 413.4 211.4Q414.9 210.0 416.9 210.0L416.9 210.0Q418.9 210.0 420.4 211.4Q421.8 212.7 421.8 214.6L421.8 214.6Q421.8 216.5 420.4 217.9Q418.9 219.2 416.9 219.2ZM441.5 256.8L441.5 256.8Q436.5 256.8 432.9 254.7Q429.3 252.6 427.3 248.8Q425.4 245.0 425.4 239.9L425.4 239.9Q425.4 234.9 427.3 231.1Q429.3 227.2 432.9 225.1Q436.5 223.0 441.5 223.0L441.5 223.0Q446.4 223.0 450.0 225.1Q453.6 227.2 455.6 231.1Q457.6 234.9 457.6 239.9L457.6 239.9Q457.6 245.0 455.6 248.8Q453.6 252.6 450.0 254.7Q446.4 256.8 441.5 256.8ZM441.5 249.8L441.5 249.8Q443.8 249.8 445.3 248.5Q446.8 247.2 447.6 245.0Q448.3 242.7 448.3 239.9L448.3 239.9Q448.3 237.0 447.6 234.8Q446.8 232.5 445.3 231.2Q443.8 229.9 441.5 229.9L441.5 229.9Q439.2 229.9 437.7 231.2Q436.1 232.5 435.4 234.8Q434.6 237.0 434.6 239.9L434.6 239.9Q434.6 242.7 435.4 245.0Q436.1 247.2 437.7 248.5Q439.2 249.8 441.5 249.8Z M506.2 225.1L497.3 225.1Q497.1 222.5 495.1 221.1Q493.2 219.6 489.9 219.6L489.9 219.6Q487.6 219.6 486.0 220.3Q484.5 220.9 483.7 222.0Q482.8 223.1 482.8 224.5L482.8 224.5Q482.8 225.7 483.3 226.6Q483.9 227.4 484.8 228.1Q485.8 228.7 487.1 229.2Q488.3 229.6 489.7 229.9L489.7 229.9L493.7 230.9Q496.5 231.5 498.9 232.6Q501.3 233.6 503.0 235.2Q504.8 236.7 505.8 238.9Q506.7 241.0 506.8 243.7L506.8 243.7Q506.7 247.7 504.7 250.6Q502.7 253.6 498.9 255.2Q495.1 256.8 489.8 256.8L489.8 256.8Q484.5 256.8 480.6 255.2Q476.7 253.5 474.5 250.4Q472.3 247.2 472.2 242.5L472.2 242.5L481.2 242.5Q481.3 244.7 482.4 246.1Q483.5 247.6 485.4 248.3Q487.3 249.0 489.7 249.0L489.7 249.0Q492.0 249.0 493.8 248.4Q495.5 247.7 496.5 246.5Q497.4 245.3 497.4 243.7L497.4 243.7Q497.4 242.2 496.6 241.2Q495.7 240.2 494.1 239.5Q492.4 238.8 490.0 238.2L490.0 238.2L485.3 237.0Q479.8 235.7 476.6 232.8Q473.4 230.0 473.4 225.1L473.4 225.1Q473.4 221.2 475.5 218.2Q477.6 215.3 481.4 213.6Q485.1 211.9 489.9 211.9L489.9 211.9Q494.8 211.9 498.4 213.6Q502.0 215.3 504.1 218.2Q506.1 221.2 506.2 225.1L506.2 225.1ZM519.8 256.2L510.8 256.2L510.8 223.4L519.8 223.4L519.8 256.2ZM515.3 219.2L515.3 219.2Q513.3 219.2 511.9 217.9Q510.4 216.5 510.4 214.6L510.4 214.6Q510.4 212.7 511.9 211.4Q513.3 210.0 515.3 210.0L515.3 210.0Q517.3 210.0 518.8 211.4Q520.2 212.7 520.2 214.6L520.2 214.6Q520.2 216.5 518.8 217.9Q517.3 219.2 515.3 219.2ZM522.8 223.4L542.5 223.4L542.5 230.3L522.8 230.3L522.8 223.4ZM527.3 247.3L527.3 215.6L536.3 215.6L536.3 246.1Q536.3 247.4 536.7 248.1Q537.1 248.7 537.8 249.0Q538.5 249.3 539.4 249.3L539.4 249.3Q540.0 249.3 540.7 249.2Q541.3 249.1 541.7 249.0L541.7 249.0L543.1 255.8Q542.4 256.0 541.2 256.3Q539.9 256.5 538.2 256.6L538.2 256.6Q534.9 256.7 532.4 255.7Q530.0 254.7 528.6 252.6Q527.2 250.5 527.3 247.3L527.3 247.3ZM561.0 256.8L561.0 256.8Q555.9 256.8 552.3 254.7Q548.6 252.7 546.7 248.9Q544.7 245.1 544.7 239.9L544.7 239.9Q544.7 234.9 546.7 231.1Q548.6 227.3 552.2 225.1Q555.8 223.0 560.6 223.0L560.6 223.0Q563.8 223.0 566.6 224.0Q569.4 225.1 571.5 227.1Q573.6 229.2 574.8 232.3Q576.0 235.5 576.0 239.6L576.0 239.6L576.0 242.1L548.3 242.1L548.3 236.5L567.4 236.5Q567.4 234.5 566.6 233.0Q565.7 231.5 564.2 230.6Q562.7 229.8 560.8 229.8L560.8 229.8Q558.7 229.8 557.1 230.7Q555.5 231.7 554.6 233.3Q553.7 234.9 553.7 236.8L553.7 236.8L553.7 242.1Q553.7 244.6 554.6 246.3Q555.5 248.1 557.2 249.1Q558.8 250.0 561.1 250.0L561.1 250.0Q562.6 250.0 563.9 249.6Q565.1 249.2 566.0 248.3Q566.9 247.5 567.4 246.2L567.4 246.2L575.8 246.8Q575.2 249.8 573.2 252.1Q571.2 254.3 568.1 255.6Q565.0 256.8 561.0 256.8Z "/></clipPath><defs><pattern id="satori_pattern_id-2_0" x="0" y="0" width="1" height="1" patternUnits="objectBoundingBox"><linearGradient id="satori_biid-2_0" x1="0" y1="0" x2="1" y2="0"><stop offset="0%" stop-color="rgb(255,77,77)"/><stop offset="100%" stop-color="rgb(249,203,40)"/></linearGradient><rect x="0" y="0" width="354" height="73" fill="url(#satori_biid-2_0)"/></pattern></defs><mask id="satori_om-id-2"><rect x="223" y="200" width="354" height="73" fill="#fff"/></mask><rect x="223" y="200" width="354" height="73" fill="url(#satori_pattern_id-2_0)" clip-path="url(#satori_bct-id-2)"/></svg>