<svg xmlns="http://www.w3.org/2000/svg" fill="none" viewBox="0 0 960 960"><g clip-path="url(#a)"><g clip-path="url(#b)"><path fill="#171717" d="M497.001 272.187c56.64-1.78 113.283-3.567 169.931-5.361 15.718-.5 33.289-.325 44.63 10.576 5.927 5.7 9.246 13.665 10.723 21.76 1.477 8.095 1.257 16.367 1.026 24.587-.23 8.513-.468 17.026-.712 25.54l-8.377.555-.283-.01a22.604 22.604 0 00-.283-5.571 10.179 10.179 0 00-1.388-3.766 10.177 10.177 0 00-2.738-2.934c-2.482-1.581-5.613-1.581-8.555-1.529-14.828.272-29.98.586-43.938 5.55l-.188-.545c.555-7.215.45-14.2-5.173-18.754-4.178-3.393-10.074-3.361-15.456-3.162-19.334.712-38.664 1.421-57.991 2.126-3.77.136-7.833.377-10.754 2.764-2.921 2.387-3.55 7.759-.262 9.592l.293 1.937-99.919 15.288-.052-.367-1.665-15.519-19.592 6.094 1.853 12.388.052.377-45.882 7.014.838 18.922-.838.042-19.707 4.691 1.539 15.906-1.047.105-14.36 3.717a8.64 8.64 0 00-2.087-3.441 8.638 8.638 0 00-3.421-2.119 22.73 22.73 0 00-8.1-1.037 141.39 141.39 0 00-22.933 2.084c-5.906 1.016-12.074 2.545-16.346 6.754-3.613 3.571-5.267 8.482-5.833 13.613l-.325-.031-9.875 2.639.743 15.027 9.791-2.586.492-.115a23.654 23.654 0 004.409 9.749 5.979 5.979 0 003.529 2.44 4.79 4.79 0 004.576-2.649 13.314 13.314 0 001.288-5.382 13.465 13.465 0 005.131 8.189 6.932 6.932 0 005.026 1.571 6.118 6.118 0 004.241-3.33 10.82 10.82 0 001-2.88 5.832 5.832 0 005.979 3.382 8.098 8.098 0 006.032-4.482 14.115 14.115 0 001.225-7.634l.01-.031c3.055.501 6.151.715 9.246.639a24.57 24.57 0 003.581-.335l.126.67c.6 4.241 1.194 8.545.586 12.786s-2.618 8.471-6.22 10.807c-3.937 2.545-8.964 2.408-13.644 2.189l-9.142-.44c-6.88-.325-13.753-.653-20.618-.984-15.383-.733-32.242-2.084-43.258-12.828-10.9-10.639-12.775-27.362-12.555-42.6.408-28.818 6.608-58.839 25.027-81 15.665-18.849 38.807-30.252 62.62-36.053 23.728-5.77 48.357-6.45 72.777-7.079l-.052-2a34.213 34.213 0 01-.565-9.288 11.485 11.485 0 014.241-8.011c2.712-1.958 6.283-2.147 9.623-2.262 2.052-.073 4.094-.136 6.147-.209l37.153-1.288 5.508-.188c3.288-.115 6.869-.147 9.519 1.8 4.052 2.977 4.052 8.914 3.623 13.93z"/><path fill="url(#c)" d="M722.6 349.289l-.346 12.66-9.424.8-.22-.042c.571-3.436.959-6.9 1.162-10.377a99.25 99.25 0 00.168-2.492l.283.01 8.377-.559z"/><path fill="#171717" d="M698.723 372.525c.283 1.853.817 3.906 2.429 4.869a4.443 4.443 0 004.409-.209 9.517 9.517 0 003.11-3.372 31.751 31.751 0 003.937-11.11l.22.042 9.424-.8c-.115 3.958-.23 7.927-.335 11.885-.178 6.283-.66 13.3-5.288 17.561-3.4 3.131-8.252 3.99-12.828 4.66a503.69 503.69 0 01-23.529 2.848c-6 .586-12.534.942-17.561-2.388-5.027-3.33-6.775-11.864-1.738-15.184l-.01-.22a39.502 39.502 0 005.948-.848 9.666 9.666 0 005.267-2.534 7.028 7.028 0 001.435-5.78 15.2 15.2 0 00-2.429-5.623l-.01-.073 1.833-.157.325-.031c.168 1.571.419 3.121.743 4.67.6 2.827 1.749 5.937 4.409 7.068a5.9 5.9 0 005.058-.366 8.797 8.797 0 003.518-3.77l.691-.178c.142.6.349 1.183.618 1.738a4.776 4.776 0 003.225 2.712 4.869 4.869 0 004.22-1.592 14.29 14.29 0 002.45-3.969l.429-.063c.007.078.019.141.03.214z"/><path fill="url(#d)" d="M673.101 352.556l.293.031a61.712 61.712 0 00-.063 13.477l-.33.036-1.833.157-25.7 2.157-19.582 1.644h-.241l.136-14.419.66.01 19.645-1.3 27.015-1.793z"/><path fill="url(#e)" d="M625.895 344.179l-.105 11.455-.136 14.42-.126 14.042-24.577 2.901-.397-40.975 25.341-1.843z"/><path fill="url(#f)" d="M586.124 634.061l-7.267 1.142-.262-1.634-.377-29.938 23.288-1.854 1.55-.01.293 29.582-17.225 2.712z"/><path fill="url(#g)" d="M600.951 387l.063 5.958-.618.01-44.713 1.11-4.44 74.662 49.153-3.33 1.319-.01 1.34 136.37-1.55.01-23.289 1.853.377 29.938.262 1.634-151 23.792-12.252 1.927-2.325-52.462.482-.021 41.76-8.5-8.136-73.552-37.283 10.34-1.833-41.289-3.152-71.1-1.979-44.6-.838-18.922 45.886-7.016 19.4-2.974 99.916-15.287 32.891-5.026.157 15.508.402 40.977zm-84.819 207.4l32.158-80.578-25.875 3.7 6.649-127.867-43.236 1.843L491.001 519l-31.414 3.319 56.545 72.081z"/><path fill="url(#h)" d="M601.013 392.955l.702 72.442-1.32.01-49.153 3.33 4.44-74.662 44.713-1.11.618-.01z"/><path fill="url(#i)" d="M566.384 659.465L446.653 678.67l-15.278 2.45-3.445-21.686-.073-.44 150.999-23.791 7.267-1.142 1.958 21.927-12.639 2.032-9.058 1.445z"/><path fill="url(#j)" d="M562.532 899.608l.021.534c-.241-.042-.45-.073-.628-.105-11.487-1.969-23.163-10.126-34.3-7.11l-.031-.094 6.649-40 .45.073c6.262.628 12.618 1.267 18.838.283a26.604 26.604 0 0013.529-6.021c15.941 15.612 42.153 15.132 60.049 28.492 2.974 2.22 5.78 4.953 6.984 8.482 1.204 3.529.346 7.948-2.775 9.99-1.969 1.288-4.45 1.435-6.8 1.55-20.31.963-41.661 2.963-61.986 3.926z"/><path fill="#171717" d="M548.289 513.817l-32.158 80.578-56.546-72.075L491 519l-5.173-127.511 43.237-1.843-6.65 127.867 25.875-3.696z"/><path fill="url(#k)" d="M534.97 164.4a66.634 66.634 0 01-26.755 11.7l-.524-.126a5.164 5.164 0 00.681-1.927c.387-2.723-1.581-5.351-4.042-6.587-2.461-1.236-5.32-1.351-8.074-1.372-17.425-.115-34.682 3.152-51.729 6.733-5.257 1.11-10.786 2.4-14.639 6.126a17.038 17.038 0 00-2.8 3.623l-.723-.44c-2.157.147-4.848-.01-5.728-1.979a2.795 2.795 0 01-.209-1.518 4.18 4.18 0 011.34-2.461 10.33 10.33 0 013.937-1.937c23.362-7.466 47.582-11.529 71.971-14.524 4.084-.492 8.168-.964 12.252-1.414 6.9-.764 13.8-1.476 20.692-2.178 1.483-.247 3-.215 4.471.094a4.142 4.142 0 013.089 2.953c.402 2.128-1.462 3.96-3.21 5.234z"/><path fill="#171717" d="M499.859 180.08c-.133-2-.3-4-.5-6l.073-1.4c-14.493-.848-29.132-.23-43.3 2.953-4.189.942-8.576 2.251-11.456 5.435-3.8 4.21-3.969 10.472-3.927 16.147.052 6.587.101 13.17.147 19.749h-.356a81.517 81.517 0 01-10.346 10.744c-1.529 1.33-3.309 2.67-5.34 2.628-3.424-.073-5.539-4.251-4.806-7.6.733-3.349 3.33-5.937 5.8-8.314a24.519 24.519 0 01-10.964 6.147 5.7 5.7 0 01-4.105-.115c-1.749-.953-2.22-3.361-1.634-5.257a15.216 15.216 0 013.267-4.932 62.822 62.822 0 0010.262-17.226c1.382-3.508 2.513-7.257 4.419-10.461a17.013 17.013 0 012.8-3.623c3.854-3.728 9.382-5.016 14.639-6.126 17.048-3.581 34.305-6.848 51.729-6.733 2.754.021 5.6.147 8.074 1.372s4.429 3.864 4.042 6.587a5.147 5.147 0 01-.681 1.927c-1.445 2.45-4.806 3.738-7.833 4.168-.004-.028-.004-.05-.004-.07z"/><path fill="url(#l)" d="M467.533 350.461l.052.367-19.403 2.974-.053-.377-1.853-12.388 19.592-6.094 1.665 15.518z"/><path fill="url(#m)" d="M447.387 526.383l8.136 73.552-41.76 8.502-.482.021-3.183-71.729 37.289-10.346z"/><path fill="url(#n)" d="M427.952 145.178c4-10.88 10.388-21.184 19.791-27.959 9.403-6.775 22.084-9.581 32.922-5.456 7.351 2.806 13.351 8.534 17.519 15.215 4.168 6.681 6.628 14.294 8.367 21.969.691 3.079 1.34 6.314 3.319 8.775l.063.576c-4.084.45-8.168.921-12.252 1.414l-.094-.827c-1.257-6.691-2.576-13.55-6.094-19.393-4.964-8.252-14.147-13.623-23.728-14.639a38.729 38.729 0 00-27.069 7.958 48.76 48.76 0 00-15.226 20.137 97 97 0 012.482-7.77z"/><path fill="url(#o)" d="M419.292 867.848c1.654 7.058 3.33 14.241 2.88 21.477-.45 7.236-3.351 14.671-9.2 18.932-5.634 4.094-13 4.691-19.938 5.152-33.059 2.189-66.121 4.37-99.186 6.545-5.173.346-11.906-.367-13.215-5.382-1.267-4.848 3.885-8.754 8.293-11.121 21.116-11.301 42.233-22.606 63.349-33.917l.9-.586c2.723 2.136 6.723 2.262 10.293 2.209l37.5-.6c6.168-.094 12.744-.335 18.063-3.183l.261.474z"/><path fill="url(#p)" d="M420.411 178.635a226.835 226.835 0 015.058-25.687 48.763 48.763 0 0115.231-20.137 38.732 38.732 0 0127.069-7.958c9.581 1.016 18.765 6.388 23.728 14.639 3.518 5.843 4.838 12.7 6.094 19.393l.094.827c-24.388 3-48.609 7.058-71.971 14.524a10.33 10.33 0 00-3.937 1.937 4.166 4.166 0 00-1.34 2.461h-.021l-.005.001z"/><path fill="#171717" d="M405.113 424.338l3.152 71.1-.618.031c-16.126.366-29.352.733-45.258 1.089-.66.021-1.33.042-2 .052-5.864.136-12.136.157-17.027-3.089-4.859-3.225-7.351-9.184-7.791-15.006-.44-5.822.88-11.623 2.2-17.309l.042-.963 9.142.44c4.681.22 9.707.356 13.644-2.189 3.6-2.335 5.6-6.566 6.22-10.807.62-4.241.01-8.545-.586-12.786l-.126-.67a9.584 9.584 0 006.053-3.194c2.482-3.152 1.77-7.665.942-11.592l-.23-.89 12.43-3.288.262-.021 1.215 12.587 17.5-3.456.834-.039z"/><path fill="url(#q)" d="M403.133 379.74l1.979 44.598-.837.042-17.498 3.455-1.215-12.586-1.434-14.87-1.54-15.906 19.708-4.691.837-.042z"/><path fill="url(#r)" d="M368.724 404.2l14.356-3.717 1.047-.1 1.435 14.87-.262.021-12.43 3.288-16 4.23.136.513c-1.07.257-2.119.591-3.141 1l-.126-.293a94.516 94.516 0 00-.157-15.969l.429-.042 14.713-3.801z"/><path fill="url(#s)" d="M310.828 434.987l-.492.115-9.791 2.586-.743-15.027 9.875-2.639.325.031a49.333 49.333 0 00.826 14.934z"/><path stroke="#171717" stroke-linecap="round" stroke-linejoin="round" stroke-width="3.141" d="M468.728 221.18c1.937 1.466 4.943-.021 5.906-2.251.963-2.23.513-4.785.031-7.173-1.393-7.038-2.793-14.081-4.2-21.131-.3-1.518-.576-3.236.314-4.524a5.582 5.582 0 013.309-1.843 44.57 44.57 0 0114.7-1.34"/><path stroke="#171717" stroke-linecap="round" stroke-linejoin="round" stroke-width="3.141" d="M488.026 193.525a4.537 4.537 0 00-7.086-1.603 4.546 4.546 0 00-1.459 2.347M464.653 236.416a6.289 6.289 0 01-5.807.724 6.287 6.287 0 01-3.893-4.368M462.13 194.028a4.985 4.985 0 00-9.6 2.2M478.34 256.281a12.775 12.775 0 012.775-13.341c3.121-3.141 7.7-4.429 10.943-7.445 4.168-3.874 5.456-9.885 6.272-15.529a190.408 190.408 0 001.529-39.823v-.063c-.133-2-.3-4-.5-6"/><path stroke="#171717" stroke-linecap="round" stroke-linejoin="round" stroke-width="3.141" d="M441.201 257.841c-.094-13.623-.194-27.25-.3-40.881-.052-6.587-.101-13.17-.147-19.749-.042-5.676.126-11.938 3.927-16.147 2.88-3.183 7.267-4.492 11.456-5.435 14.168-3.183 28.807-3.8 43.3-2.953.063 0 .136.01.2.01"/><path stroke="#171717" stroke-linecap="round" stroke-linejoin="round" stroke-width="3.141" d="M440.538 216.96a81.547 81.547 0 01-10.346 10.74c-1.529 1.33-3.309 2.67-5.34 2.628-3.424-.073-5.539-4.251-4.806-7.6.733-3.349 3.33-5.937 5.8-8.314a24.51 24.51 0 01-10.964 6.147 5.697 5.697 0 01-4.1-.115c-1.749-.953-2.22-3.361-1.634-5.257a15.216 15.216 0 013.267-4.932 62.847 62.847 0 0010.262-17.226c1.382-3.508 2.513-7.257 4.419-10.461a17.038 17.038 0 012.8-3.623c3.854-3.728 9.382-5.016 14.639-6.126 17.048-3.581 34.305-6.848 51.729-6.733 2.754.021 5.6.147 8.074 1.372s4.429 3.864 4.042 6.587a5.147 5.147 0 01-.681 1.927c-1.445 2.45-4.806 3.738-7.833 4.168-.063.01-.115.01-.178.021a1.38 1.38 0 00.178-.084c.178-.073.367-.168.555-.251"/><path stroke="#171717" stroke-linecap="round" stroke-linejoin="round" stroke-width="3.141" d="M426.37 182.132c-2.157.147-4.848-.01-5.728-1.979a2.795 2.795 0 01-.209-1.518c.15-.95.623-1.82 1.34-2.461a10.33 10.33 0 013.937-1.937c23.362-7.466 47.582-11.529 71.971-14.524 4.084-.492 8.168-.964 12.252-1.414 6.9-.764 13.8-1.476 20.692-2.178 1.483-.247 3-.215 4.471.094a4.142 4.142 0 013.089 2.953c.4 2.126-1.466 3.958-3.215 5.236a66.634 66.634 0 01-26.755 11.7"/><path stroke="#171717" stroke-linecap="round" stroke-linejoin="round" stroke-width="3.141" d="M420.349 179.043l.063-.408a226.835 226.835 0 015.058-25.687 97 97 0 012.482-7.77c4-10.88 10.388-21.184 19.791-27.959 9.403-6.775 22.084-9.581 32.922-5.456 7.351 2.806 13.351 8.534 17.519 15.215 4.168 6.681 6.628 14.294 8.367 21.969.691 3.079 1.34 6.314 3.319 8.775"/><path stroke="#171717" stroke-linecap="round" stroke-linejoin="round" stroke-width="3.141" d="M424.266 156.079a59.872 59.872 0 011.2-3.131 48.751 48.751 0 0115.235-20.137 38.729 38.729 0 0127.069-7.958c9.581 1.016 18.765 6.388 23.728 14.639 3.518 5.843 4.838 12.7 6.094 19.393M421.753 277.705a34.173 34.173 0 01-.565-9.288 11.485 11.485 0 014.241-8.011c2.712-1.958 6.283-2.147 9.623-2.262 2.052-.073 4.094-.136 6.147-.209l37.153-1.288 5.508-.188c3.288-.115 6.869-.147 9.519 1.8 4.052 2.974 4.052 8.911 3.623 13.927v.063M407.648 495.471c-16.126.366-29.352.733-45.258 1.089-.66.021-1.33.042-2 .052-5.864.136-12.136.157-17.027-3.089-4.859-3.225-7.351-9.184-7.791-15.006-.44-5.822.88-11.623 2.2-17.309M366.233 434.9c.6 4.241 1.194 8.545.586 12.786s-2.618 8.471-6.22 10.807c-3.937 2.545-8.964 2.408-13.644 2.189l-9.142-.44c-6.88-.325-13.753-.653-20.618-.984-15.383-.733-32.242-2.084-43.258-12.828-10.9-10.639-12.775-27.362-12.555-42.6.408-28.818 6.608-58.839 25.027-81 15.665-18.849 38.807-30.252 62.62-36.053 23.728-5.77 48.357-6.45 72.777-7.079.076-.008.153-.012.23-.01"/><path stroke="#171717" stroke-linecap="round" stroke-linejoin="round" stroke-width="3.141" d="M496.352 272.208c.22-.01.429-.01.649-.021 56.64-1.78 113.283-3.567 169.931-5.361 15.718-.5 33.289-.325 44.63 10.576 5.927 5.7 9.246 13.665 10.723 21.76 1.477 8.095 1.257 16.367 1.026 24.587-.23 8.513-.468 17.026-.712 25.54l-.346 12.66c-.115 3.958-.23 7.927-.335 11.885-.178 6.283-.66 13.3-5.288 17.561-3.4 3.131-8.252 3.99-12.828 4.66a502.35 502.35 0 01-23.529 2.848c-6 .586-12.534.942-17.561-2.388-5.027-3.33-6.775-11.864-1.738-15.184"/><path stroke="#171717" stroke-linecap="round" stroke-linejoin="round" stroke-width="3.141" d="M656.847 341.037c.555-7.215.45-14.2-5.173-18.754-4.178-3.393-10.074-3.361-15.456-3.162-19.33.712-38.66 1.42-57.991 2.126-3.77.136-7.833.377-10.754 2.764-2.921 2.387-3.55 7.759-.262 9.592M362.42 497.743c-4.492 121.113-7.927 239.085-12.419 360.2-.126 3.529-.136 7.435 2.2 10.084.296.336.622.644.974.921 2.723 2.136 6.723 2.262 10.293 2.209l37.5-.6c6.168-.094 12.744-.335 18.063-3.183a18.433 18.433 0 002.618-1.707c6.545-5.162 8.252-14.2 9.5-22.44a792833.25 792833.25 0 0120.43-134.3"/><path stroke="#171717" stroke-linecap="round" stroke-linejoin="round" stroke-width="3.141" d="M352.274 869.534c-21.111 11.31-42.229 22.616-63.353 33.917-4.408 2.367-9.56 6.272-8.293 11.121 1.309 5.016 8.042 5.728 13.215 5.382 33.059-2.178 66.121-4.36 99.186-6.545 6.943-.461 14.3-1.058 19.938-5.152 5.854-4.262 8.754-11.7 9.2-18.932.446-7.232-1.225-14.419-2.88-21.477M448.182 353.802l-45.886 7.016.837 18.922 1.979 44.598 3.152 71.101 1.833 41.29 3.183 71.729 2.325 52.463 12.252-1.927 150.999-23.791 7.267-1.142 17.225-2.712-.293-29.582-1.34-136.37-.702-72.442-.063-5.958-.397-40.975-.158-15.509-32.891 5.027-99.919 15.288-19.403 2.974z"/><path stroke="#171717" stroke-linecap="round" stroke-linejoin="round" stroke-width="3.141" d="M427.931 659.434l3.445 21.686 15.278-2.45 119.731-19.205 9.058-1.445 12.639-2.032-1.958-21.927-.021-.251"/><path stroke="#171717" stroke-linecap="round" stroke-linejoin="round" stroke-width="3.141" d="M446.653 678.659v.011l5.079 30.231h.01l32.849 195.451M566.395 659.434l-.011.031-32.147 193.367-6.65 40.001"/><path stroke="#171717" stroke-linecap="round" stroke-linejoin="round" stroke-width="3.141" d="M457.062 911.943a16.958 16.958 0 0119.048-10.157c2.848.66 5.614 2.094 8.41 2.848 1.637.499 3.369.611 5.057.325 3.393-.66 5.99-3.32 9.026-4.995a17 17 0 0119.77 2.9c2.859-3.246 4.461-8.461 8.6-9.749.22-.063.429-.126.649-.188 11.142-3.016 22.817 5.142 34.3 7.11.178.031.387.063.628.105 4.89.775 21.9 3.089 25.529 3.717M534.688 852.905c6.262.628 12.618 1.267 18.838.283a26.616 26.616 0 0013.529-6.021 18.236 18.236 0 002.617-2.838c3.791-5.11 4.65-11.749 5.289-18.084 5.581-55.4 3.465-111.27.699-166.884"/><path stroke="#171717" stroke-linecap="round" stroke-linejoin="round" stroke-width="3.141" d="M566.992 847.1l.063.063c15.946 15.617 42.158 15.137 60.054 28.497 2.974 2.22 5.78 4.953 6.984 8.482 1.204 3.529.346 7.948-2.775 9.99-1.969 1.288-4.45 1.435-6.8 1.55-20.315.963-41.666 2.963-61.991 3.927-.063 0-.115.01-.178.01M548.289 513.817l-32.158 80.578-56.546-72.075L491 519l-5.173-127.511 43.237-1.843-6.65 127.867 25.875-3.696zM413.762 608.437l41.76-8.502-8.136-73.552-37.289 10.346-.032.01M600.395 392.965l-44.713 1.11-4.44 74.662 49.153-3.33M578.595 633.569l-.377-29.938 23.288-1.854"/><path stroke="#171717" stroke-linecap="round" stroke-linejoin="round" stroke-width="3.141" d="M586.332 619.505l2.45-4.199c.911-1.55 1.822-3.11 2.723-4.66"/><path stroke="#171717" stroke-linecap="round" stroke-linejoin="round" stroke-width="3.141" d="M592.626 618.061a891.418 891.418 0 00-3.843-2.754c-1.309-.942-2.607-1.874-3.906-2.806M567.829 404.861a960.99 960.99 0 01-3.592-2.639c-1-.743-2.021-1.487-3.026-2.22"/><path stroke="#171717" stroke-linecap="round" stroke-linejoin="round" stroke-width="3.141" d="M567.023 398.787c-.932 1.152-1.853 2.293-2.785 3.435-.775.963-1.56 1.927-2.335 2.89M564.521 461.742c-1.131-1.079-2.262-2.147-3.393-3.225-.953-.911-1.906-1.822-2.859-2.723"/><path stroke="#171717" stroke-linecap="round" stroke-linejoin="round" stroke-width="3.141" d="M558.636 462.077c.827-1.183 1.665-2.367 2.492-3.56.89-1.277 1.78-2.555 2.681-3.833M441.951 540.226c-1.194-.618-2.4-1.236-3.592-1.853-1.058-.544-2.1-1.089-3.162-1.634"/><path stroke="#171717" stroke-linecap="round" stroke-linejoin="round" stroke-width="3.141" d="M440.37 534.519c-.67 1.288-1.34 2.565-2.011 3.853l-2.419 4.649M447.02 594.762a22.543 22.543 0 00-3.927-3.183 22.99 22.99 0 00-3.833-1.99"/><path stroke="#171717" stroke-linecap="round" stroke-linejoin="round" stroke-width="3.141" d="M445.313 587.966a525.58 525.58 0 01-2.22 3.613c-.932 1.539-1.874 3.068-2.817 4.607M402.296 379.782l-19.708 4.691 1.54 15.906 1.434 14.87 1.215 12.586 17.498-3.455M354.441 423.427l2.429-.639 16.001-4.23 12.429-3.288M309.676 420.024l-9.874 2.638.743 15.027 9.791-2.586M383.081 400.484l-14.356 3.717-14.712 3.801M600.396 346.032l.157-.01 25.341-1.843-.105 11.455-.135 14.42-.127 14.042-24.576 2.901-.555.062M673.006 366.095l-1.833.158-25.697 2.157-19.581 1.644M714.221 349.844l8.377-.555 4.565-.304-.188 12.566-4.723.398-9.424.796M626.449 355.645l19.644-1.299 27.006-1.79M467.533 350.461l-1.665-15.518-19.592 6.094 1.853 12.388M358.442 422.977c-.482.105-.963.209-1.435.325-1.07.257-2.12.591-3.142 1v.01a11.698 11.698 0 00-5.199 3.895c-.764 1.026-1.415 2.388-.87 3.539.5 1.058 1.78 1.445 2.922 1.7.848.188 1.707.346 2.566.482 3.056.501 6.151.715 9.246.639a24.544 24.544 0 003.581-.335 9.575 9.575 0 006.053-3.194c2.482-3.152 1.77-7.665.942-11.592"/><path stroke="#171717" stroke-linecap="round" stroke-linejoin="round" stroke-width="3.141" d="M368.745 404.264a.143.143 0 00-.021-.063 8.625 8.625 0 00-5.508-5.56 22.71 22.71 0 00-8.105-1.037 141.4 141.4 0 00-22.933 2.084c-5.906 1.016-12.074 2.545-16.346 6.754-3.613 3.571-5.267 8.482-5.833 13.613a45.727 45.727 0 00-.147 7.655c.132 2.448.457 4.882.974 7.278a23.673 23.673 0 004.409 9.749 5.982 5.982 0 003.529 2.44 4.794 4.794 0 004.576-2.649 13.298 13.298 0 001.288-5.382v-.052c.817-9.435.912-18.918.283-28.367"/><path stroke="#171717" stroke-linecap="round" stroke-linejoin="round" stroke-width="3.141" d="M324.4 435.658a12.598 12.598 0 00.23 3.487 13.474 13.474 0 005.131 8.189 6.933 6.933 0 005.026 1.571 6.116 6.116 0 004.241-3.33c.468-.908.805-1.878 1-2.88.188-.827.314-1.675.419-2.513 1.309-10.691-.042-21.519-1.393-32.21"/><path stroke="#171717" stroke-linecap="round" stroke-linejoin="round" stroke-width="3.141" d="M339.9 442.286c.042.136.084.272.136.408a5.827 5.827 0 005.979 3.382 8.093 8.093 0 006.032-4.482 14.106 14.106 0 001.225-7.634M353.739 424.013a94.516 94.516 0 00-.157-15.969c-.084-.9-.188-1.791-.293-2.691M646.051 353.634a8.742 8.742 0 012.869-7.644 20.657 20.657 0 017.372-4.147c.251-.094.492-.178.743-.262 13.959-4.964 29.111-5.278 43.938-5.55 2.943-.052 6.073-.052 8.555 1.529a10.163 10.163 0 014.126 6.7c.324 1.838.419 3.709.283 5.571a99.25 99.25 0 01-.168 2.492 98.753 98.753 0 01-1.162 10.377 31.771 31.771 0 01-3.937 11.11 9.535 9.535 0 01-3.11 3.372 4.426 4.426 0 01-4.409.209c-1.613-.963-2.147-3.016-2.429-4.869l-.031-.209c-1.319-9.026-.105-18.21 1.11-27.247"/><path stroke="#171717" stroke-linecap="round" stroke-linejoin="round" stroke-width="3.141" d="M698.263 372.378a14.313 14.313 0 01-2.45 3.969 4.868 4.868 0 01-4.22 1.592 4.775 4.775 0 01-3.225-2.712 8.443 8.443 0 01-.618-1.738 19.934 19.934 0 01-.44-2.482 93.88 93.88 0 01-.031-26.6M687.059 373.666a8.82 8.82 0 01-3.518 3.77 5.887 5.887 0 01-5.058.366c-2.66-1.131-3.812-4.241-4.409-7.068a46.961 46.961 0 01-.743-4.67 61.588 61.588 0 01.063-13.477 92.736 92.736 0 011.508-9.3M645.501 368.7c-.115 3.267-.063 6.869 2.084 9.33 1.958 2.241 5.162 2.89 8.136 3.089 1.746.111 3.499.108 5.246-.01a39.52 39.52 0 005.948-.848 9.666 9.666 0 005.267-2.534 7.04 7.04 0 001.435-5.78 15.2 15.2 0 00-2.429-5.623M351.486 806.642C348.34 791 333.06 778.718 317.1 779.013c-15.96.295-30.772 13.13-33.338 28.88a29.537 29.537 0 00-33.628-5.67c-10.859 5.5-17.107 16.628-16.388 29.41-3.76-6.586-11.674-7.952-18.89-5.618-7.216 2.334-12.679 8.506-15.9 15.371s-4.507 14.453-5.759 21.933c-25.041-3.228-51.373 11.159-62.185 33.975-2.107 4.447-3.56 10.043-.671 14.026 2.889 3.983 8.62 4.336 13.554 4.285a2212.467 2212.467 0 00137.938-5.729M658.86 876.568c1.293-8.088 2.747-16.241 6-23.759 3.253-7.518 8.484-14.445 15.738-18.247 7.254-3.802 16.683-3.97 23.307.846 3.633-7.809 7.41-15.822 13.69-21.717 6.28-5.895 15.741-9.243 23.7-5.959 8.382 3.458 12.552 12.831 14.834 21.606-.016-8.576 10.024-14.929 18.29-12.646 8.266 2.283 13.588 11.178 13.469 19.753 4.668-6.523 12.191-11.461 20.209-11.2 10.729.354 19.36 9.92 22.22 20.267 2.86 10.347 1.242 21.337-.394 31.946M658.051 876.19l170.5.69"/><path stroke="#171717" stroke-linecap="round" stroke-linejoin="round" stroke-width="3.141" d="M576.744 688.018l110.874-13.797 5.914 157.195M357.951 628.885l-81.801 10.841-8.377 159.66M270.238 733.847l-75.888 8.377 6.406 93.627M417.086 677.119a22.55 22.55 0 01-21.076-30.388M397.901 681.434a11.44 11.44 0 01-9.131-9.4M606.238 643.8a30.079 30.079 0 0013.471-25.022M611.511 660.969a48.098 48.098 0 0026.764-40.7M601.101 390.24c15.608 3.42 25.77 22.245 20.065 37.17-1.25 3.269-3.148 6.458-3.055 9.957.245 9.227 13.378 13.436 14.9 22.541 1.548 9.265-9.385 15.382-13.38 23.884-3.37 7.171-1.516 15.563-1.85 23.479-.334 7.916-4.963 17.235-12.885 17.122M717.977 407.755a14.185 14.185 0 0015.775-17.449M737.428 292.842c1.5-14.008-9.267-28.232-23.158-30.583M748.106 267.632a21.93 21.93 0 00-10.331-16.777M247.319 353.341a68.657 68.657 0 0126.963-43.725M237.281 326.8a22.934 22.934 0 019.157-16.852M307.581 146.936C314.705 161.1 322 176.007 321.6 191.857c-.4 15.85-11.363 32.645-27.179 33.765-12.984.92-25.536-10.457-25.893-23.468-.073-2.649.4-5.528 2.316-7.359 3.737-3.569 10.149-.835 13.375 3.2a22.197 22.197 0 01-3.257 31.013 22.216 22.216 0 01-10.368 4.729c-6.2 1.052-12.582-.56-18.839.1a26.029 26.029 0 00-22.768 31.09 26.04 26.04 0 006.581 12.67M405.3 178.2c-6.987-8.439-7.046-21.841-.134-30.341M543.459 176a29.118 29.118 0 008.994-27.346M567.101 119.142a75.629 75.629 0 00-16.214-13.356M550.135 121.325a83.427 83.427 0 0114.783-16.262M503.441 65.154l-.947-25.124M486.572 55.554a111.746 111.746 0 0129.586-8.71M249.129 564.529c3.57 11.49 7.152 23.029 9.022 34.915 1.359 8.637 1.735 17.813-1.838 25.792-3.573 7.979-12.053 14.3-20.686 12.918-8.633-1.382-14.812-12.581-9.67-19.653 4.007-5.51 12.756-5.923 18.325-2 5.569 3.923 8.2 11 8.469 17.812.212 5.469-1.06 11.266-4.824 15.239-9.412 9.933-27.785 3.428-38.357 12.116-6.142 5.047-7.746 14.084-6 21.84 1.746 7.756 6.254 14.56 10.675 21.168M701.975 509.129c-12.564 9.837-20 25.3-22.1 41.115-2.1 15.815.763 31.978 5.978 47.058 2.336 6.755 5.213 13.466 9.859 18.9 4.646 5.434 11.308 9.485 18.455 9.609 7.147.124 14.522-4.377 16.434-11.265 1.912-6.888-3.139-15.239-10.277-15.617-8.262-.438-14.12 9.242-12.9 17.426 1.22 8.184 7.108 14.794 12.894 20.708 5.786 5.914 11.977 12.075 14.084 20.076 3.139 11.92-5.317 25.6-17.384 28.115"/><path stroke="url(#t)" stroke-miterlimit="10" stroke-width="3.141" d="M455.4 333.566a19.235 19.235 0 00-6.215-11.02 13.48 13.48 0 00-12.06-2.856c-5.746 1.647-9.381 7.636-10.109 13.569-.728 5.933.869 11.878 2.451 17.642l.947-1.158"/><path stroke="url(#u)" stroke-miterlimit="10" stroke-width="3.141" d="M399.273 436.554c-15.546 1.7-27.568 18.626-24.05 33.863 3.692 15.991 21.195 28.458 18.4 44.631-1.7 9.846-10.521 16.686-15.376 25.418a33.674 33.674 0 00.726 33.976 33.682 33.682 0 0029.956 16.047"/><path stroke="url(#v)" stroke-miterlimit="10" stroke-width="3.141" d="M489.549 269.526l-.739-8.131"/><path stroke="url(#w)" stroke-miterlimit="10" stroke-width="3.141" d="M477.331 269.9l-.741-8.5"/><path stroke="url(#x)" stroke-miterlimit="10" stroke-width="3.141" d="M464.452 270.634l-.366-7.761"/><path stroke="url(#y)" stroke-miterlimit="10" stroke-width="3.141" d="M451.529 272.108l-.747-8.13"/><path stroke="url(#z)" stroke-miterlimit="10" stroke-width="3.141" d="M438.889 273.224l-.739-7.392"/><path stroke="url(#A)" stroke-miterlimit="10" stroke-width="3.141" d="M427.284 273.968l-.291-7.764"/><path stroke="#171717" stroke-linecap="round" stroke-linejoin="round" stroke-width="3.141" d="M281.095 909.863A257.95 257.95 0 00421.368 885.7M529.045 884.241a201.673 201.673 0 00101.988-3.551M343.264 874.629a127.444 127.444 0 0025.843 12.488M326.938 884.116a27.454 27.454 0 0015.214 9.04M572.366 875.346a90.926 90.926 0 0121.105-12.457M561.475 864.444l15.274-8.874M456.867 733.6l103.923-54.8M464.7 780.332l87.67-48.865M471.187 817.367a842.113 842.113 0 0072.53-33.769M476.59 854.82l60.2-28.9M482.509 889.813L529.98 867.5M290.872 657.281l-.37 9.979M316.004 653.093l-.369 9.979M341.136 649.951l-.37 9.979M290.872 690.79l-.37 9.979M316.004 686.602l-.369 9.978M341.136 683.46l-.37 9.979M290.872 728.488l-.37 9.978M316.004 724.299l-.369 9.979M341.136 721.158l-.37 9.978M207.1 759.902l-.37 9.979M232.231 755.714l-.369 9.978M257.363 752.572l-.37 9.979M209.194 790.27l-.37 9.977M234.325 786.081l-.369 9.979M259.457 782.939l-.37 9.979M619.657 699.812l.517 9.972M643.272 697.602l.517 9.972M666.979 694.34l.516 9.973M594.526 702.954l.516 9.972M619.657 731.227l.517 9.972M643.272 729.017l.517 9.972M666.979 725.755l.516 9.972M594.526 734.369l.516 9.972M619.657 762.642l.517 9.972M643.272 760.431l.517 9.972M666.979 757.169l.516 9.973M594.526 765.783l.516 9.972M619.657 795.103l.517 9.972M643.272 792.893l.517 9.972M666.979 789.631l.516 9.972M594.526 798.245l.516 9.972"/><path fill="#171717" d="M465.464 108.918c-5.372-1.53-12.787 3.87-16.855 6.985a89.712 89.712 0 00-14.538 13.839c-9.391 11.277-13.525 26.63-14.964 40.941-.538 5.348 4.952 9.938 9.937 9.938 5.729 0 9.515-4.565 9.938-9.938.895-11.357 5.206-21.6 10.054-31.741a72.76 72.76 0 018.56-14.053c1.823-2.3 3.8-4.5 5.563-6.835 1.467-1.941 3.546-3.859 3.909-6.31a2.364 2.364 0 00-1.6-2.826h-.004zM470.753 175.481c-2.3-5.17-11.757-2.24-15.438-.424a32.493 32.493 0 00-15.546 16.681c-7.584 17.4.462 36.1-4.1 53.826-3.186 12.369 16.29 17.651 19.075 5.259 3.8-16.93-1.737-33.181-1.361-50.143.15-6.754 1.87-14.02 7.519-18.386 2.622-2.027 6.15-2.3 8.631-4.183.8-.61 1.7-1.568 1.224-2.63h-.004zM400.451 364.506c-1.656 18.406-.437 37.054.132 55.5a6045.503 6045.503 0 007.413 166.376 6086.151 6086.151 0 004.021 63.315c.409 5.961 4.792 11.062 11.063 11.062 5.642 0 11.51-5.072 11.062-11.062a6166.262 6166.262 0 01-12.62-223.747c-.808-21.263-.713-42.7-3.668-63.8-.6-4.3-5.861-6.926-9.721-6.346-4.591.691-7.276 4.189-7.682 8.7v.002z" opacity=".1"/><path fill="#171717" d="M428.965 660.585c-.678 2.448-.49 4.985-.529 7.5-.131 2.636.05 5.278.54 7.871 1.084 4.919 6.388 7.887 11.109 7.253 4.76-.64 9.01-4.889 8.78-9.944a33.576 33.576 0 00-1.532-7.737c-.683-2.391-1.155-4.856-2.432-7.023-3.805-6.455-13.929-5.162-15.936 2.083v-.003z" opacity=".1"/><path fill="#171717" d="M446.434 678.746c-2.211 8.906.359 18.825 2.123 27.6 1.805 8.975 3.583 17.954 5.4 26.927A2468.844 2468.844 0 01481.363 896.7c.843 6.356 5.107 11.5 12.161 10.543 6.976-.943 9.793-7 8.925-13.4a2514.553 2514.553 0 00-17.49-110.339c-3.272-18-6.744-35.962-10.415-53.888a1144.538 1144.538 0 00-5.827-26.807c-2.14-9.319-4.118-19.654-10.3-27.235-3.449-4.233-10.774-1.72-11.987 3.164l.004.008zM361.324 499.907c-2.869 11.5-2.267 24.094-2.694 35.887-.42 11.615-.717 23.233-1.034 34.852a202335.225 202335.225 0 00-5.665 212.1c-.651 26.555-1.275 53.11-2.077 79.661-.431 14.222 21.941 14.262 22.125 0 1.216-94.268 3.2-188.532 4.7-282.8.211-13.276.492-26.553.584-39.831.091-13.089 1.417-26.984-1.206-39.87-1.521-7.476-12.967-7.087-14.735 0l.002.001zM316.299 779.305c-2.242-1.622-3.791-.343-6.155.135-3.982.8-6.352 1.335-9.624 3.984-5.659 4.582-11.017 9.268-14.147 16.006-2.287 4.921-1.017 10.647 4.352 12.909a9.11 9.11 0 007.468-.185 9.11 9.11 0 004.813-5.715 60.859 60.859 0 013.336-9.373c1.431-3.089 3.594-4.7 5.576-7.354.847-1.136 1.227-2.464 2.078-3.563.807-1.042 2.2-1.511 2.851-2.7a3.167 3.167 0 00-.548-4.151v.007zM256.584 798.758c-6.672 1.747-12.672 6.161-17.213 11.387a44.288 44.288 0 00-5.851 8.623 52.226 52.226 0 00-2.574 5.9c-.484 1.31-.682 3.385-1.413 4.538-4.046 6.377 1.244 14.812 8.5 14.812 7.682 0 11.974-8.3 8.5-14.812l-.587-1.1 1.242 4.593c-.809-11.833 4.259-21.149 11.814-29.791a2.505 2.505 0 00.353-2.985 2.498 2.498 0 00-2.77-1.167l-.001.002zM218.453 825.508c-9.065-1.507-16.705 6.2-21.131 13.259-5.482 8.744-8.422 20.544-4.132 30.276 1.653 3.751 6.959 5.342 10.64 4.33 4.191-1.152 6.61-4.919 6.917-9.085.24-3.259-.607-6.581-.479-9.9.091-3.216.661-6.4 1.693-9.447 2.02-5.878 6.262-10.671 8.1-16.6a2.312 2.312 0 00-1.6-2.826l-.008-.007zM732.946 807.328c-14.054 2.127-23.994 14.514-28.2 27.512-3.416 10.565 14.419 14.217 15.7 2.125.129-1.224.033-2.752.179-3.739a18.14 18.14 0 011.08-3.422 35.626 35.626 0 013.5-6.848 95.21 95.21 0 019.427-12.73 1.75 1.75 0 00-1.688-2.9l.002.002zM691.447 832.084c-3.928.9-7.526.734-11.177 2.846a41.542 41.542 0 00-9.8 8.59 52.213 52.213 0 00-11.68 23.488c-1.07 4.944 1.476 10.139 6.548 11.532 4.4 1.21 10.806-1.5 11.532-6.548a60.252 60.252 0 015.968-18.929 80.781 80.781 0 015.135-8.35c2-2.953 3.121-6.8 5.3-9.5a1.89 1.89 0 00.256-2.246 1.894 1.894 0 00-2.08-.888l-.002.005z" opacity=".1"/></g></g><defs><linearGradient id="c" x1="717.605" x2="717.605" y1="349.289" y2="362.749" gradientUnits="userSpaceOnUse"><stop stop-color="#4A9FFF"/><stop offset="1" stop-color="#2A67F7"/></linearGradient><linearGradient id="d" x1="649.519" x2="649.519" y1="352.556" y2="370.058" gradientUnits="userSpaceOnUse"><stop stop-color="#4A9FFF"/><stop offset="1" stop-color="#2A67F7"/></linearGradient><linearGradient id="e" x1="613.224" x2="613.224" y1="344.179" y2="386.997" gradientUnits="userSpaceOnUse"><stop stop-color="#4A9FFF"/><stop offset="1" stop-color="#2A67F7"/></linearGradient><linearGradient id="f" x1="590.783" x2="590.783" y1="601.767" y2="635.203" gradientUnits="userSpaceOnUse"><stop stop-color="#4A9FFF"/><stop offset="1" stop-color="#2A67F7"/></linearGradient><linearGradient id="g" x1="502.677" x2="502.677" y1="330.515" y2="660.924" gradientUnits="userSpaceOnUse"><stop stop-color="#4A9FFF"/><stop offset="1" stop-color="#2A67F7"/></linearGradient><linearGradient id="h" x1="576.479" x2="576.479" y1="392.955" y2="468.737" gradientUnits="userSpaceOnUse"><stop stop-color="#4A9FFF"/><stop offset="1" stop-color="#2A67F7"/></linearGradient><linearGradient id="i" x1="507.969" x2="507.969" y1="634.061" y2="681.12" gradientUnits="userSpaceOnUse"><stop stop-color="#4A9FFF"/><stop offset="1" stop-color="#2A67F7"/></linearGradient><linearGradient id="j" x1="581.104" x2="581.104" y1="847.168" y2="900.142" gradientUnits="userSpaceOnUse"><stop stop-color="#4A9FFF"/><stop offset="1" stop-color="#2A67F7"/></linearGradient><linearGradient id="k" x1="479.318" x2="479.318" y1="155.955" y2="182.57" gradientUnits="userSpaceOnUse"><stop stop-color="#4A9FFF"/><stop offset="1" stop-color="#2A67F7"/></linearGradient><linearGradient id="l" x1="456.931" x2="456.931" y1="334.943" y2="353.802" gradientUnits="userSpaceOnUse"><stop stop-color="#4A9FFF"/><stop offset="1" stop-color="#2A67F7"/></linearGradient><linearGradient id="m" x1="432.81" x2="432.81" y1="526.383" y2="608.458" gradientUnits="userSpaceOnUse"><stop stop-color="#4A9FFF"/><stop offset="1" stop-color="#2A67F7"/></linearGradient><linearGradient id="n" x1="467.701" x2="467.701" y1="109.835" y2="159.712" gradientUnits="userSpaceOnUse"><stop stop-color="#4A9FFF"/><stop offset="1" stop-color="#2A67F7"/></linearGradient><linearGradient id="o" x1="351.342" x2="351.342" y1="867.374" y2="920.028" gradientUnits="userSpaceOnUse"><stop stop-color="#4A9FFF"/><stop offset="1" stop-color="#2A67F7"/></linearGradient><linearGradient id="p" x1="459.048" x2="459.048" y1="124.707" y2="178.635" gradientUnits="userSpaceOnUse"><stop stop-color="#4A9FFF"/><stop offset="1" stop-color="#2A67F7"/></linearGradient><linearGradient id="q" x1="393.85" x2="393.85" y1="379.74" y2="427.835" gradientUnits="userSpaceOnUse"><stop stop-color="#4A9FFF"/><stop offset="1" stop-color="#2A67F7"/></linearGradient><linearGradient id="r" x1="369.572" x2="369.572" y1="400.383" y2="424.305" gradientUnits="userSpaceOnUse"><stop stop-color="#4A9FFF"/><stop offset="1" stop-color="#2A67F7"/></linearGradient><linearGradient id="s" x1="305.315" x2="305.315" y1="420.022" y2="437.688" gradientUnits="userSpaceOnUse"><stop stop-color="#4A9FFF"/><stop offset="1" stop-color="#2A67F7"/></linearGradient><linearGradient id="t" x1="441.118" x2="441.118" y1="319.288" y2="350.901" gradientUnits="userSpaceOnUse"><stop stop-color="#4A9FFF"/><stop offset="1" stop-color="#2A67F7"/></linearGradient><linearGradient id="u" x1="391.466" x2="391.466" y1="436.554" y2="590.512" gradientUnits="userSpaceOnUse"><stop stop-color="#4A9FFF"/><stop offset="1" stop-color="#2A67F7"/></linearGradient><linearGradient id="v" x1="489.179" x2="489.179" y1="261.395" y2="269.526" gradientUnits="userSpaceOnUse"><stop stop-color="#4A9FFF"/><stop offset="1" stop-color="#2A67F7"/></linearGradient><linearGradient id="w" x1="476.96" x2="476.96" y1="261.4" y2="269.9" gradientUnits="userSpaceOnUse"><stop stop-color="#4A9FFF"/><stop offset="1" stop-color="#2A67F7"/></linearGradient><linearGradient id="x" x1="464.269" x2="464.269" y1="262.873" y2="270.634" gradientUnits="userSpaceOnUse"><stop stop-color="#4A9FFF"/><stop offset="1" stop-color="#2A67F7"/></linearGradient><linearGradient id="y" x1="451.156" x2="451.156" y1="263.978" y2="272.108" gradientUnits="userSpaceOnUse"><stop stop-color="#4A9FFF"/><stop offset="1" stop-color="#2A67F7"/></linearGradient><linearGradient id="z" x1="438.52" x2="438.52" y1="265.832" y2="273.224" gradientUnits="userSpaceOnUse"><stop stop-color="#4A9FFF"/><stop offset="1" stop-color="#2A67F7"/></linearGradient><linearGradient id="A" x1="427.139" x2="427.139" y1="266.204" y2="273.968" gradientUnits="userSpaceOnUse"><stop stop-color="#4A9FFF"/><stop offset="1" stop-color="#2A67F7"/></linearGradient><clipPath id="a"><path fill="#fff" d="M0 0h960v960H0z"/></clipPath><clipPath id="b"><path fill="#fff" d="M0 0h707v884H0z" transform="translate(127 38)"/></clipPath></defs></svg>